<mxfile host="app.diagrams.net" agent="Mozilla/5.0 (Windows NT 10.0; Win64; x64) AppleWebKit/537.36 (KHTML, like Gecko) Chrome/131.0.0.0 Safari/537.36" version="26.0.4">
  <diagram name="Page-1" id="1BAxoLtjsKwVAy4T0DxF">
    <mxGraphModel dx="1331" dy="1956" grid="1" gridSize="10" guides="1" tooltips="1" connect="1" arrows="1" fold="1" page="1" pageScale="1" pageWidth="1654" pageHeight="1169" math="0" shadow="0">
      <root>
        <mxCell id="0" />
        <mxCell id="1" parent="0" />
        <mxCell id="YkdL_WX0aorPD_8UrSG3-6" value="&lt;h1 style=&quot;margin-top: 0px;&quot;&gt;Reqs&lt;/h1&gt;&lt;p&gt;&lt;/p&gt;&lt;ul&gt;&lt;li&gt;список фоток с подгрузкой&lt;/li&gt;&lt;li&gt;подписка-отписка&lt;/li&gt;&lt;li&gt;ауз и профиль не в скопе&lt;/li&gt;&lt;li&gt;создание постов&lt;/li&gt;&lt;/ul&gt;&lt;p&gt;&lt;/p&gt;" style="text;html=1;whiteSpace=wrap;overflow=hidden;rounded=0;" vertex="1" parent="1">
          <mxGeometry x="100" y="80" width="320" height="160" as="geometry" />
        </mxCell>
        <mxCell id="YkdL_WX0aorPD_8UrSG3-12" value="&lt;h1 style=&quot;margin-top: 0px;&quot;&gt;Reqs&lt;/h1&gt;&lt;p&gt;&lt;/p&gt;&lt;ul&gt;&lt;li&gt;10^9 всего пользователей (месяц)&lt;/li&gt;&lt;li&gt;5 * 10^8 DAU&lt;/li&gt;&lt;li&gt;5 раз в день смотрит ленту&lt;/li&gt;&lt;li&gt;пост 50 10^6 в день&lt;/li&gt;&lt;ul&gt;&lt;li&gt;текст - 1кб&lt;/li&gt;&lt;li&gt;картинка - 100кб&lt;/li&gt;&lt;/ul&gt;&lt;li&gt;лента инзначально 10 фото (постов)&lt;/li&gt;&lt;/ul&gt;&lt;p&gt;&lt;/p&gt;" style="text;html=1;whiteSpace=wrap;overflow=hidden;rounded=0;" vertex="1" parent="1">
          <mxGeometry x="100" y="270" width="320" height="160" as="geometry" />
        </mxCell>
        <mxCell id="YkdL_WX0aorPD_8UrSG3-14" value="&lt;h1 style=&quot;margin-top: 0px;&quot;&gt;Capacity&lt;/h1&gt;&lt;p&gt;&lt;/p&gt;&lt;ul&gt;&lt;li&gt;&lt;span style=&quot;text-align: center; text-wrap-mode: nowrap;&quot;&gt;write&lt;/span&gt;&lt;/li&gt;&lt;ul&gt;&lt;li&gt;50 10^6 / 10^5 = 500 rps&lt;/li&gt;&lt;li&gt;50 10^6 1 * 10^5 = 10 * 10^11 = 5 Tb&lt;/li&gt;&lt;/ul&gt;&lt;li&gt;&lt;span style=&quot;background-color: transparent; color: light-dark(rgb(0, 0, 0), rgb(255, 255, 255));&quot;&gt;read&amp;nbsp;&lt;/span&gt;&lt;/li&gt;&lt;ul&gt;&lt;li&gt;&lt;span style=&quot;background-color: transparent; color: light-dark(rgb(0, 0, 0), rgb(255, 255, 255));&quot;&gt;5 * 5000 = 25 000 rps&lt;/span&gt;&lt;/li&gt;&lt;li&gt;&lt;span style=&quot;background-color: transparent; color: light-dark(rgb(0, 0, 0), rgb(255, 255, 255));&quot;&gt;5 * 500M * 1Kb = 2500 Gb - meta&lt;/span&gt;&lt;/li&gt;&lt;li&gt;&lt;span style=&quot;background-color: transparent; color: light-dark(rgb(0, 0, 0), rgb(255, 255, 255));&quot;&gt;250 Tb - images&lt;/span&gt;&lt;/li&gt;&lt;/ul&gt;&lt;/ul&gt;&lt;p&gt;&lt;/p&gt;" style="text;html=1;whiteSpace=wrap;overflow=hidden;rounded=0;" vertex="1" parent="1">
          <mxGeometry x="90" y="500" width="320" height="160" as="geometry" />
        </mxCell>
        <mxCell id="YkdL_WX0aorPD_8UrSG3-19" style="edgeStyle=orthogonalEdgeStyle;rounded=0;orthogonalLoop=1;jettySize=auto;html=1;entryX=0;entryY=0.5;entryDx=0;entryDy=0;" edge="1" parent="1" source="YkdL_WX0aorPD_8UrSG3-15" target="YkdL_WX0aorPD_8UrSG3-18">
          <mxGeometry relative="1" as="geometry" />
        </mxCell>
        <mxCell id="YkdL_WX0aorPD_8UrSG3-15" value="User" style="shape=umlActor;verticalLabelPosition=bottom;verticalAlign=top;html=1;" vertex="1" parent="1">
          <mxGeometry x="560" y="240" width="30" height="60" as="geometry" />
        </mxCell>
        <mxCell id="YkdL_WX0aorPD_8UrSG3-31" style="edgeStyle=orthogonalEdgeStyle;rounded=0;orthogonalLoop=1;jettySize=auto;html=1;entryX=0;entryY=0.5;entryDx=0;entryDy=0;" edge="1" parent="1" source="YkdL_WX0aorPD_8UrSG3-18" target="YkdL_WX0aorPD_8UrSG3-27">
          <mxGeometry relative="1" as="geometry" />
        </mxCell>
        <mxCell id="YkdL_WX0aorPD_8UrSG3-43" style="edgeStyle=orthogonalEdgeStyle;rounded=0;orthogonalLoop=1;jettySize=auto;html=1;entryX=0;entryY=0.5;entryDx=0;entryDy=0;" edge="1" parent="1" source="YkdL_WX0aorPD_8UrSG3-18" target="YkdL_WX0aorPD_8UrSG3-39">
          <mxGeometry relative="1" as="geometry">
            <Array as="points">
              <mxPoint x="830" y="270" />
              <mxPoint x="830" y="560" />
            </Array>
          </mxGeometry>
        </mxCell>
        <mxCell id="YkdL_WX0aorPD_8UrSG3-44" style="edgeStyle=orthogonalEdgeStyle;rounded=0;orthogonalLoop=1;jettySize=auto;html=1;entryX=0;entryY=0.5;entryDx=0;entryDy=0;" edge="1" parent="1" source="YkdL_WX0aorPD_8UrSG3-18" target="YkdL_WX0aorPD_8UrSG3-33">
          <mxGeometry relative="1" as="geometry">
            <Array as="points">
              <mxPoint x="630" y="270" />
              <mxPoint x="630" y="20" />
            </Array>
          </mxGeometry>
        </mxCell>
        <mxCell id="YkdL_WX0aorPD_8UrSG3-18" value="LB / API Gateway" style="rounded=0;whiteSpace=wrap;html=1;" vertex="1" parent="1">
          <mxGeometry x="650" y="240" width="120" height="60" as="geometry" />
        </mxCell>
        <mxCell id="YkdL_WX0aorPD_8UrSG3-20" value="" style="group" vertex="1" connectable="0" parent="1">
          <mxGeometry x="890" y="160" width="112" height="110" as="geometry" />
        </mxCell>
        <mxCell id="YkdL_WX0aorPD_8UrSG3-21" value="" style="whiteSpace=wrap;html=1;aspect=fixed;" vertex="1" parent="YkdL_WX0aorPD_8UrSG3-20">
          <mxGeometry width="80" height="80" as="geometry" />
        </mxCell>
        <mxCell id="YkdL_WX0aorPD_8UrSG3-22" value="" style="whiteSpace=wrap;html=1;aspect=fixed;" vertex="1" parent="YkdL_WX0aorPD_8UrSG3-20">
          <mxGeometry x="10.18181818181818" y="10" width="80" height="80" as="geometry" />
        </mxCell>
        <mxCell id="YkdL_WX0aorPD_8UrSG3-23" value="" style="whiteSpace=wrap;html=1;aspect=fixed;" vertex="1" parent="YkdL_WX0aorPD_8UrSG3-20">
          <mxGeometry x="20.36363636363636" y="20" width="80" height="80" as="geometry" />
        </mxCell>
        <mxCell id="YkdL_WX0aorPD_8UrSG3-24" value="Post Service" style="whiteSpace=wrap;html=1;aspect=fixed;" vertex="1" parent="YkdL_WX0aorPD_8UrSG3-20">
          <mxGeometry x="30.545454545454543" y="30" width="80" height="80" as="geometry" />
        </mxCell>
        <mxCell id="YkdL_WX0aorPD_8UrSG3-25" style="edgeStyle=orthogonalEdgeStyle;rounded=0;orthogonalLoop=1;jettySize=auto;html=1;entryX=0.013;entryY=0.585;entryDx=0;entryDy=0;entryPerimeter=0;" edge="1" parent="1" source="YkdL_WX0aorPD_8UrSG3-18" target="YkdL_WX0aorPD_8UrSG3-21">
          <mxGeometry relative="1" as="geometry" />
        </mxCell>
        <mxCell id="YkdL_WX0aorPD_8UrSG3-26" value="" style="group" vertex="1" connectable="0" parent="1">
          <mxGeometry x="890" y="350" width="112" height="110" as="geometry" />
        </mxCell>
        <mxCell id="YkdL_WX0aorPD_8UrSG3-27" value="" style="whiteSpace=wrap;html=1;aspect=fixed;" vertex="1" parent="YkdL_WX0aorPD_8UrSG3-26">
          <mxGeometry width="80" height="80" as="geometry" />
        </mxCell>
        <mxCell id="YkdL_WX0aorPD_8UrSG3-28" value="" style="whiteSpace=wrap;html=1;aspect=fixed;" vertex="1" parent="YkdL_WX0aorPD_8UrSG3-26">
          <mxGeometry x="10.18181818181818" y="10" width="80" height="80" as="geometry" />
        </mxCell>
        <mxCell id="YkdL_WX0aorPD_8UrSG3-29" value="" style="whiteSpace=wrap;html=1;aspect=fixed;" vertex="1" parent="YkdL_WX0aorPD_8UrSG3-26">
          <mxGeometry x="20.36363636363636" y="20" width="80" height="80" as="geometry" />
        </mxCell>
        <mxCell id="YkdL_WX0aorPD_8UrSG3-30" value="Feed Service" style="whiteSpace=wrap;html=1;aspect=fixed;" vertex="1" parent="YkdL_WX0aorPD_8UrSG3-26">
          <mxGeometry x="30.545454545454543" y="30" width="80" height="80" as="geometry" />
        </mxCell>
        <mxCell id="YkdL_WX0aorPD_8UrSG3-32" value="" style="group" vertex="1" connectable="0" parent="1">
          <mxGeometry x="890" y="-20" width="112" height="110" as="geometry" />
        </mxCell>
        <mxCell id="YkdL_WX0aorPD_8UrSG3-33" value="" style="whiteSpace=wrap;html=1;aspect=fixed;" vertex="1" parent="YkdL_WX0aorPD_8UrSG3-32">
          <mxGeometry width="80" height="80" as="geometry" />
        </mxCell>
        <mxCell id="YkdL_WX0aorPD_8UrSG3-34" value="" style="whiteSpace=wrap;html=1;aspect=fixed;" vertex="1" parent="YkdL_WX0aorPD_8UrSG3-32">
          <mxGeometry x="10.18181818181818" y="10" width="80" height="80" as="geometry" />
        </mxCell>
        <mxCell id="YkdL_WX0aorPD_8UrSG3-35" value="" style="whiteSpace=wrap;html=1;aspect=fixed;" vertex="1" parent="YkdL_WX0aorPD_8UrSG3-32">
          <mxGeometry x="20.36363636363636" y="20" width="80" height="80" as="geometry" />
        </mxCell>
        <mxCell id="YkdL_WX0aorPD_8UrSG3-36" value="Image Service&lt;div&gt;(CDN)&lt;/div&gt;" style="whiteSpace=wrap;html=1;aspect=fixed;" vertex="1" parent="YkdL_WX0aorPD_8UrSG3-32">
          <mxGeometry x="30.545454545454543" y="30" width="80" height="80" as="geometry" />
        </mxCell>
        <mxCell id="YkdL_WX0aorPD_8UrSG3-38" value="" style="group" vertex="1" connectable="0" parent="1">
          <mxGeometry x="900" y="520" width="112" height="110" as="geometry" />
        </mxCell>
        <mxCell id="YkdL_WX0aorPD_8UrSG3-39" value="" style="whiteSpace=wrap;html=1;aspect=fixed;" vertex="1" parent="YkdL_WX0aorPD_8UrSG3-38">
          <mxGeometry width="80" height="80" as="geometry" />
        </mxCell>
        <mxCell id="YkdL_WX0aorPD_8UrSG3-40" value="" style="whiteSpace=wrap;html=1;aspect=fixed;" vertex="1" parent="YkdL_WX0aorPD_8UrSG3-38">
          <mxGeometry x="10.18181818181818" y="10" width="80" height="80" as="geometry" />
        </mxCell>
        <mxCell id="YkdL_WX0aorPD_8UrSG3-41" value="" style="whiteSpace=wrap;html=1;aspect=fixed;" vertex="1" parent="YkdL_WX0aorPD_8UrSG3-38">
          <mxGeometry x="20.36363636363636" y="20" width="80" height="80" as="geometry" />
        </mxCell>
        <mxCell id="YkdL_WX0aorPD_8UrSG3-42" value="Subribtion" style="whiteSpace=wrap;html=1;aspect=fixed;" vertex="1" parent="YkdL_WX0aorPD_8UrSG3-38">
          <mxGeometry x="30.545454545454543" y="30" width="80" height="80" as="geometry" />
        </mxCell>
        <mxCell id="YkdL_WX0aorPD_8UrSG3-45" value="KV storage" style="shape=cylinder3;whiteSpace=wrap;html=1;boundedLbl=1;backgroundOutline=1;size=15;" vertex="1" parent="1">
          <mxGeometry x="1160" y="180" width="70" height="90" as="geometry" />
        </mxCell>
        <mxCell id="YkdL_WX0aorPD_8UrSG3-46" style="edgeStyle=orthogonalEdgeStyle;rounded=0;orthogonalLoop=1;jettySize=auto;html=1;entryX=0;entryY=0.5;entryDx=0;entryDy=0;entryPerimeter=0;" edge="1" parent="1" source="YkdL_WX0aorPD_8UrSG3-24" target="YkdL_WX0aorPD_8UrSG3-45">
          <mxGeometry relative="1" as="geometry" />
        </mxCell>
        <mxCell id="YkdL_WX0aorPD_8UrSG3-47" style="edgeStyle=orthogonalEdgeStyle;rounded=0;orthogonalLoop=1;jettySize=auto;html=1;entryX=0.5;entryY=1;entryDx=0;entryDy=0;" edge="1" parent="1" source="YkdL_WX0aorPD_8UrSG3-21" target="YkdL_WX0aorPD_8UrSG3-36">
          <mxGeometry relative="1" as="geometry" />
        </mxCell>
        <mxCell id="YkdL_WX0aorPD_8UrSG3-48" value="Redis" style="shape=cylinder3;whiteSpace=wrap;html=1;boundedLbl=1;backgroundOutline=1;size=15;" vertex="1" parent="1">
          <mxGeometry x="1160" y="370" width="80" height="90" as="geometry" />
        </mxCell>
        <mxCell id="YkdL_WX0aorPD_8UrSG3-49" style="edgeStyle=orthogonalEdgeStyle;rounded=0;orthogonalLoop=1;jettySize=auto;html=1;entryX=0;entryY=0.5;entryDx=0;entryDy=0;entryPerimeter=0;" edge="1" parent="1" source="YkdL_WX0aorPD_8UrSG3-30" target="YkdL_WX0aorPD_8UrSG3-48">
          <mxGeometry relative="1" as="geometry" />
        </mxCell>
        <mxCell id="YkdL_WX0aorPD_8UrSG3-50" value="KV storage" style="shape=cylinder3;whiteSpace=wrap;html=1;boundedLbl=1;backgroundOutline=1;size=15;" vertex="1" parent="1">
          <mxGeometry x="1160" y="540" width="80" height="90" as="geometry" />
        </mxCell>
        <mxCell id="YkdL_WX0aorPD_8UrSG3-51" style="edgeStyle=orthogonalEdgeStyle;rounded=0;orthogonalLoop=1;jettySize=auto;html=1;entryX=0.03;entryY=0.593;entryDx=0;entryDy=0;entryPerimeter=0;" edge="1" parent="1" source="YkdL_WX0aorPD_8UrSG3-42" target="YkdL_WX0aorPD_8UrSG3-50">
          <mxGeometry relative="1" as="geometry" />
        </mxCell>
        <mxCell id="YkdL_WX0aorPD_8UrSG3-54" style="edgeStyle=orthogonalEdgeStyle;rounded=0;orthogonalLoop=1;jettySize=auto;html=1;entryX=1;entryY=0.25;entryDx=0;entryDy=0;" edge="1" parent="1" source="YkdL_WX0aorPD_8UrSG3-24" target="YkdL_WX0aorPD_8UrSG3-30">
          <mxGeometry relative="1" as="geometry">
            <Array as="points">
              <mxPoint x="1021" y="230" />
              <mxPoint x="1021" y="400" />
            </Array>
          </mxGeometry>
        </mxCell>
        <mxCell id="YkdL_WX0aorPD_8UrSG3-55" value="Post Event" style="edgeLabel;html=1;align=center;verticalAlign=middle;resizable=0;points=[];" vertex="1" connectable="0" parent="YkdL_WX0aorPD_8UrSG3-54">
          <mxGeometry x="-0.3205" y="2" relative="1" as="geometry">
            <mxPoint as="offset" />
          </mxGeometry>
        </mxCell>
        <mxCell id="YkdL_WX0aorPD_8UrSG3-56" value="S3" style="shape=cylinder3;whiteSpace=wrap;html=1;boundedLbl=1;backgroundOutline=1;size=15;" vertex="1" parent="1">
          <mxGeometry x="1159.9999999999998" width="60" height="80" as="geometry" />
        </mxCell>
        <mxCell id="YkdL_WX0aorPD_8UrSG3-57" style="edgeStyle=orthogonalEdgeStyle;rounded=0;orthogonalLoop=1;jettySize=auto;html=1;entryX=0;entryY=0;entryDx=0;entryDy=52.5;entryPerimeter=0;" edge="1" parent="1" source="YkdL_WX0aorPD_8UrSG3-36" target="YkdL_WX0aorPD_8UrSG3-56">
          <mxGeometry relative="1" as="geometry" />
        </mxCell>
        <mxCell id="YkdL_WX0aorPD_8UrSG3-58" style="edgeStyle=orthogonalEdgeStyle;rounded=0;orthogonalLoop=1;jettySize=auto;html=1;" edge="1" parent="1" source="YkdL_WX0aorPD_8UrSG3-39" target="YkdL_WX0aorPD_8UrSG3-30">
          <mxGeometry relative="1" as="geometry" />
        </mxCell>
        <mxCell id="YkdL_WX0aorPD_8UrSG3-59" value="Subsription Event" style="edgeLabel;html=1;align=center;verticalAlign=middle;resizable=0;points=[];" vertex="1" connectable="0" parent="YkdL_WX0aorPD_8UrSG3-58">
          <mxGeometry x="0.1648" y="2" relative="1" as="geometry">
            <mxPoint as="offset" />
          </mxGeometry>
        </mxCell>
        <mxCell id="YkdL_WX0aorPD_8UrSG3-60" value="&lt;h1 style=&quot;margin-top: 0px;&quot;&gt;Feed Service&lt;/h1&gt;&lt;p&gt;&lt;/p&gt;&lt;ul&gt;&lt;li&gt;subsription&lt;/li&gt;&lt;ul&gt;&lt;li&gt;source_used_id&amp;nbsp;&lt;/li&gt;&lt;li&gt;&lt;span style=&quot;background-color: transparent; color: light-dark(rgb(0, 0, 0), rgb(255, 255, 255));&quot;&gt;target_used_id&amp;nbsp;&lt;/span&gt;&lt;/li&gt;&lt;/ul&gt;&lt;li&gt;feed&lt;/li&gt;&lt;ul&gt;&lt;li&gt;user_id&lt;/li&gt;&lt;ul&gt;&lt;li&gt;post1&lt;/li&gt;&lt;li&gt;post2&lt;/li&gt;&lt;/ul&gt;&lt;/ul&gt;&lt;/ul&gt;&lt;p&gt;&lt;/p&gt;" style="text;html=1;whiteSpace=wrap;overflow=hidden;rounded=0;" vertex="1" parent="1">
          <mxGeometry x="1360" y="340" width="320" height="160" as="geometry" />
        </mxCell>
        <mxCell id="YkdL_WX0aorPD_8UrSG3-61" style="edgeStyle=orthogonalEdgeStyle;rounded=0;orthogonalLoop=1;jettySize=auto;html=1;entryX=0.341;entryY=0.983;entryDx=0;entryDy=0;entryPerimeter=0;" edge="1" parent="1" source="YkdL_WX0aorPD_8UrSG3-28" target="YkdL_WX0aorPD_8UrSG3-24">
          <mxGeometry relative="1" as="geometry" />
        </mxCell>
        <mxCell id="YkdL_WX0aorPD_8UrSG3-63" value="class PostEvent(id, authorIUserId createdAt, text, imageUrl&lt;span style=&quot;background-color: transparent; color: light-dark(rgb(0, 0, 0), rgb(255, 255, 255));&quot;&gt;)&lt;/span&gt;&lt;div&gt;&lt;span style=&quot;background-color: transparent; color: light-dark(rgb(0, 0, 0), rgb(255, 255, 255));&quot;&gt;&lt;br&gt;&lt;/span&gt;&lt;/div&gt;&lt;div&gt;&lt;span style=&quot;background-color: transparent; color: light-dark(rgb(0, 0, 0), rgb(255, 255, 255));&quot;&gt;val sub = subsriptionRepo.findBySource(postEvent.&lt;/span&gt;&lt;span style=&quot;background-color: transparent; color: light-dark(rgb(0, 0, 0), rgb(255, 255, 255));&quot;&gt;authorIUserId)&lt;/span&gt;&lt;span style=&quot;background-color: transparent; color: light-dark(rgb(0, 0, 0), rgb(255, 255, 255));&quot;&gt;&amp;nbsp;&lt;/span&gt;&lt;/div&gt;&lt;div&gt;&lt;span style=&quot;background-color: transparent; color: light-dark(rgb(0, 0, 0), rgb(255, 255, 255));&quot;&gt;&lt;br&gt;&lt;/span&gt;&lt;/div&gt;&lt;div&gt;for (target in sub.targetUserIds) {&lt;/div&gt;&lt;div&gt;&lt;span style=&quot;white-space: pre;&quot;&gt;&#x9;&lt;/span&gt;feedRepo.update(target, postEvent)&lt;br&gt;&lt;/div&gt;&lt;div&gt;}&lt;/div&gt;" style="text;html=1;align=left;verticalAlign=middle;resizable=0;points=[];autosize=1;strokeColor=none;fillColor=none;" vertex="1" parent="1">
          <mxGeometry x="460" y="585" width="380" height="110" as="geometry" />
        </mxCell>
        <mxCell id="YkdL_WX0aorPD_8UrSG3-64" value="class FeedRequest(userId)&lt;div&gt;&lt;br&gt;&lt;/div&gt;&lt;div&gt;&lt;span style=&quot;color: light-dark(rgb(0, 0, 0), rgb(255, 255, 255)); background-color: transparent;&quot;&gt;val feed =&amp;nbsp;&lt;/span&gt;feedRepo&lt;span style=&quot;color: light-dark(rgb(0, 0, 0), rgb(255, 255, 255)); background-color: transparent;&quot;&gt;.find(req.&lt;/span&gt;&lt;span style=&quot;color: light-dark(rgb(0, 0, 0), rgb(255, 255, 255)); background-color: transparent;&quot;&gt;userId)&lt;/span&gt;&lt;/div&gt;&lt;div&gt;&lt;span style=&quot;color: light-dark(rgb(0, 0, 0), rgb(255, 255, 255)); background-color: transparent;&quot;&gt;return feed?: buildFeed(req.userId,&amp;nbsp;&lt;/span&gt;&lt;span style=&quot;background-color: transparent; color: light-dark(rgb(0, 0, 0), rgb(255, 255, 255));&quot;&gt;sub)&lt;/span&gt;&lt;/div&gt;&lt;div&gt;&lt;span style=&quot;background-color: transparent; color: light-dark(rgb(0, 0, 0), rgb(255, 255, 255));&quot;&gt;&lt;br&gt;&lt;/span&gt;&lt;/div&gt;&lt;div&gt;&lt;span style=&quot;background-color: transparent; color: light-dark(rgb(0, 0, 0), rgb(255, 255, 255));&quot;&gt;fun buildFeed(...)&amp;nbsp;&lt;/span&gt;&lt;/div&gt;&lt;div&gt;&lt;div&gt;&lt;span style=&quot;background-color: transparent; color: light-dark(rgb(0, 0, 0), rgb(255, 255, 255));&quot;&gt;&lt;span style=&quot;white-space: pre;&quot;&gt;&#x9;&lt;/span&gt;val sub = subsriptionRepo.findByTarget(&lt;/span&gt;&lt;span style=&quot;background-color: transparent; color: light-dark(rgb(0, 0, 0), rgb(255, 255, 255));&quot;&gt;req.userId&lt;/span&gt;&lt;span style=&quot;background-color: transparent; color: light-dark(rgb(0, 0, 0), rgb(255, 255, 255));&quot;&gt;)&lt;/span&gt;&lt;span style=&quot;background-color: transparent; color: light-dark(rgb(0, 0, 0), rgb(255, 255, 255));&quot;&gt;&amp;nbsp;&lt;/span&gt;&lt;/div&gt;&lt;/div&gt;&lt;div&gt;&lt;span style=&quot;white-space: pre;&quot;&gt;&#x9;&lt;/span&gt;&lt;br&gt;&lt;/div&gt;&lt;div&gt;&lt;span style=&quot;background-color: transparent; color: light-dark(rgb(0, 0, 0), rgb(255, 255, 255));&quot;&gt;&lt;span style=&quot;white-space: pre;&quot;&gt;&#x9;&lt;/span&gt;postRepo.find(sourceId, offset)&lt;br&gt;&lt;/span&gt;&lt;/div&gt;&lt;div&gt;&lt;/div&gt;&lt;div&gt;&lt;span style=&quot;background-color: transparent; color: light-dark(rgb(0, 0, 0), rgb(255, 255, 255));&quot;&gt;&lt;span style=&quot;white-space: pre;&quot;&gt;&#x9;&lt;/span&gt;&lt;br&gt;&lt;/span&gt;&lt;/div&gt;&lt;div&gt;&lt;span style=&quot;background-color: transparent; color: light-dark(rgb(0, 0, 0), rgb(255, 255, 255));&quot;&gt;&lt;br&gt;&lt;/span&gt;&lt;/div&gt;&lt;div&gt;&lt;span style=&quot;background-color: transparent; color: light-dark(rgb(0, 0, 0), rgb(255, 255, 255));&quot;&gt;&lt;br&gt;&lt;/span&gt;&lt;/div&gt;&lt;div&gt;&lt;span style=&quot;color: light-dark(rgb(0, 0, 0), rgb(255, 255, 255)); background-color: transparent;&quot;&gt;&lt;br&gt;&lt;/span&gt;&lt;/div&gt;" style="text;html=1;align=left;verticalAlign=middle;resizable=0;points=[];autosize=1;strokeColor=none;fillColor=none;" vertex="1" parent="1">
          <mxGeometry x="920" y="690" width="320" height="200" as="geometry" />
        </mxCell>
      </root>
    </mxGraphModel>
  </diagram>
</mxfile>
